# xmcd
#
# Track frame offsets:
#	150
#	13052
#	29328
#	48981
#	60533
#	77373
#	93876
#	109854
#	123957
#	138810
#	154149
#	168853
#	181943
#
# Disc length: 2645 seconds
#
# Revision: 0
# Processed by: cddbd v1.5.2PL0 Copyright (c) Steve Scherf et al.
# Submitted via: audiograbber 1.83.01
#
DISCID=940a530d
DTITLE=JJ Lawhorn - Original Good Ol' Boy
DYEAR=2013
DGENRE=Country
TTITLE0=When She Puts On Them Jeans
TTITLE1=Sittin' On A Tailgate
TTITLE2=Good Ol' Boys Like Us
TTITLE3=You Can Tell A Man By His Truck
TTITLE4=You Don't Know Me Very Well
TTITLE5=Last Of A Dying Breed
TTITLE6=Stomping Grounds
TTITLE7=I'm Diggin' On That
TTITLE8=She Kissed Me Anyway
TTITLE9=Call Me Country
TTITLE10=It's Too Late Now
TTITLE11=Tan Lines
TTITLE12=Down Home In Dixie
EXTD=
EXTT0=
EXTT1=
EXTT2=
EXTT3=
EXTT4=
EXTT5=
EXTT6=
EXTT7=
EXTT8=
EXTT9=
EXTT10=
EXTT11=
EXTT12=
PLAYORDER=
